<?xml version="1.0" standalone="no"?>
<!DOCTYPE svg PUBLIC "-//W3C//DTD SVG 20010904//EN"
 "http://www.w3.org/TR/2001/REC-SVG-20010904/DTD/svg10.dtd">
<svg version="1.0" xmlns="http://www.w3.org/2000/svg"
 width="512.000000pt" height="512.000000pt" viewBox="0 0 512.000000 512.000000"
 preserveAspectRatio="xMidYMid meet">

<g transform="translate(0.000000,512.000000) scale(0.100000,-0.100000)"
fill="#FFFFFF" stroke="none">
<path d="M2385 5114 c-232 -23 -365 -47 -545 -100 -290 -84 -576 -227 -829
-417 -137 -102 -390 -358 -494 -498 -266 -360 -430 -756 -494 -1194 -24 -167
-24 -524 1 -690 65 -446 231 -845 499 -1204 102 -137 358 -390 498 -494 360
-266 756 -430 1194 -494 167 -24 524 -24 690 1 446 65 845 231 1204 499 137
102 390 358 494 498 266 360 430 756 494 1194 24 167 24 524 -1 690 -65 446
-231 845 -499 1204 -102 137 -358 390 -498 494 -355 263 -740 424 -1164 488
-124 19 -455 33 -550 23z m221 -1055 c28 -7 54 -23 72 -43 16 -19 259 -560
625 -1394 497 -1132 599 -1371 599 -1408 0 -90 -66 -164 -146 -164 -49 0 -118
30 -138 59 -9 12 -114 247 -234 521 l-218 500 -600 -2 -600 -3 -221 -495
c-121 -272 -226 -505 -233 -518 -22 -39 -71 -62 -134 -62 -50 0 -62 4 -93 31
-50 44 -68 83 -63 134 3 25 241 581 602 1406 552 1264 599 1367 637 1401 35
32 50 40 92 47 5 0 28 -4 53 -10z"/>
<path d="M2545 3459 c-9 -19 -110 -250 -224 -514 l-208 -480 223 -3 c122 -1
326 -1 452 0 l230 3 -224 509 c-124 281 -227 512 -229 514 -2 3 -11 -11 -20
-29z"/>
</g>
</svg>
